<svg xmlns="http://www.w3.org/2000/svg" version="1.1" xmlns:xlink="http://www.w3.org/1999/xlink" xmlns:svgjs="http://svgjs.dev/svgjs" width="512" height="512"><svg width="512" height="512" viewBox="0 0 512 512" fill="none" xmlns="http://www.w3.org/2000/svg">
<rect width="512" height="512" fill="#000435"></rect>
<path d="M55.6833 380.425C58.4833 375.059 60.3499 368.292 61.2833 360.125C62.4499 351.959 63.1499 343.325 63.3833 334.225C63.8499 324.892 64.3166 315.909 64.7833 307.275C65.2499 299.109 65.5999 290.709 65.8333 282.075C66.0666 273.442 66.1833 264.692 66.1833 255.825C66.1833 243.459 65.7166 231.325 64.7833 219.425C64.0833 207.292 62.6833 196.209 60.5833 186.175C59.6499 180.809 57.7833 175.675 54.9833 170.775C52.4166 165.875 49.1499 163.425 45.1833 163.425C43.0833 163.425 40.7499 164.359 38.1833 166.225C35.8499 167.859 33.1666 171.009 30.1333 175.675C29.8999 176.142 29.4333 176.025 28.7333 175.325C28.2666 174.625 28.1499 174.042 28.3833 173.575C30.2499 167.742 33.9833 161.442 39.5833 154.675C45.1833 147.909 51.1333 142.309 57.4333 137.875C60.6999 135.542 63.6166 133.909 66.1833 132.975C68.9833 132.042 71.5499 131.575 73.8833 131.575C80.8833 131.575 86.2499 135.192 89.9833 142.425C93.7166 149.425 96.3999 157.359 98.0333 166.225C99.6666 175.092 100.717 185.825 101.183 198.425C101.883 210.792 102.233 223.742 102.233 237.275C102.233 251.509 102 265.625 101.533 279.625C101.067 293.625 100.483 306.109 99.7833 317.075C99.0833 328.042 98.4999 336.209 98.0333 341.575C105.967 330.609 114.6 317.659 123.933 302.725C133.267 287.792 142.717 272.159 152.283 255.825C162.083 239.492 171.3 223.625 179.933 208.225C188.567 192.592 196.15 178.475 202.683 165.875C209.45 153.275 214.35 143.359 217.383 136.125H248.883C245.383 141.725 239.783 150.592 232.083 162.725C224.383 174.625 215.4 188.392 205.133 204.025C195.1 219.659 184.483 236.109 173.283 253.375C162.083 270.409 151.233 287.092 140.733 303.425C130.233 319.525 120.9 333.875 112.733 346.475C108.3 353.709 103.633 360.825 98.7333 367.825C94.0666 374.592 88.2333 378.675 81.2333 380.075C80.5333 380.309 79.4833 380.425 78.0833 380.425H55.6833Z" fill="#FFE8D4"></path>
<path d="M305.233 383.05C285.633 379.783 271.283 371.267 262.183 357.5C253.317 343.733 248.883 327.4 248.883 308.5C248.883 294.733 251.1 280.383 255.533 265.45C259.967 250.283 266.267 235.467 274.433 221C282.833 206.533 292.867 193.117 304.533 180.75C316.2 168.15 329.383 157.417 344.083 148.55C358.783 139.683 374.767 133.5 392.033 130C402.533 127.9 412.567 126.85 422.133 126.85C440.8 126.85 455.733 130.583 466.933 138.05C478.133 145.283 483.733 154.617 483.733 166.05C483.733 168.383 483.5 170.717 483.033 173.05C482.8 175.15 482.1 177.483 480.933 180.05C478.367 186.817 474.05 192.883 467.983 198.25C462.15 203.383 455.383 207.35 447.683 210.15C440.217 212.95 432.517 214.117 424.583 213.65C420.85 213.183 417.583 211.9 414.783 209.8C412.217 207.467 410.933 204.667 410.933 201.4C410.933 198.133 412.333 194.633 415.133 190.9C417.7 191.833 420.617 192.3 423.883 192.3C429.717 192.3 435.433 190.9 441.033 188.1C446.633 185.3 451.3 181.45 455.033 176.55C458.767 171.65 460.633 166.167 460.633 160.1C460.633 151.933 457.833 146.567 452.233 144C446.633 141.2 440.333 139.8 433.333 139.8C428.667 139.8 424 140.267 419.333 141.2C414.9 141.9 411.283 142.6 408.483 143.3C395.183 146.8 381.533 153.217 367.533 162.55C353.767 171.65 341.167 182.85 329.733 196.15C318.3 209.217 309.433 223.567 303.133 239.2C298.467 250.633 294.85 262.183 292.283 273.85C289.717 285.517 288.433 296.6 288.433 307.1C288.433 320.633 290.65 332.533 295.083 342.8C299.75 353.067 307.1 360.183 317.133 364.15C326.233 367.65 335.567 369.4 345.133 369.4C360.533 369.4 376.05 365.667 391.683 358.2C407.55 350.733 422.133 341.283 435.433 329.85C443.6 322.617 450.95 315.15 457.483 307.45C464.017 299.75 469.033 291.583 472.533 282.95C476.967 285.75 479.183 289.833 479.183 295.2C479.183 299.4 477.9 303.95 475.333 308.85C473 313.75 470.2 318.3 466.933 322.5C463.9 326.7 461.217 329.967 458.883 332.3C442.55 349.333 422.95 362.4 400.083 371.5C377.45 380.6 354.467 385.15 331.133 385.15C322.267 385.15 313.633 384.45 305.233 383.05Z" fill="#FFE8D4"></path>
</svg><style>@media (prefers-color-scheme: light) { :root { filter: none; } }
@media (prefers-color-scheme: dark) { :root { filter: none; } }
</style></svg>